<svg width="50" height="50" viewBox="0 0 50 50" fill="none" xmlns="http://www.w3.org/2000/svg">
<path d="M18.5263 46.7393H18.9584L19.021 46.3117L19.062 46.0318C19.0864 45.8651 19.1732 45.0867 19.2546 44.3104C19.3372 43.5234 19.4215 42.7708 19.4421 42.6296L19.4831 42.3496L19.5669 41.7773L18.9885 41.7772L11.7145 41.7757C11.4964 41.7756 11.2844 41.7756 11.0783 41.7756C7.43853 41.775 5.64967 41.7748 4.64658 41.7078C4.1217 41.6727 3.85062 41.6212 3.65815 41.5568C3.48413 41.4986 3.35823 41.4264 3.12915 41.295C3.10217 41.2795 3.07376 41.2632 3.04367 41.246C2.09741 40.7052 1.45269 39.9698 0.969656 38.8493C0.927923 38.7525 0.892569 38.6748 0.862011 38.6077C0.776596 38.4201 0.728658 38.3148 0.683654 38.1037C0.619552 37.8029 0.572488 37.31 0.54324 36.2498C0.491903 34.3889 0.496552 30.8962 0.505883 23.8872C0.507125 22.9539 0.508451 21.9582 0.509738 20.8957L0.529298 4.7528L0.717095 4.11402C1.06906 2.91683 1.81803 1.86735 2.74633 1.23761C3.29886 0.862775 3.8703 0.659836 4.72067 0.562686C4.72005 0.562756 4.72274 0.562447 4.73 0.561887L4.75821 0.560036C4.78236 0.558643 4.8142 0.557169 4.85443 0.555655C4.9348 0.55263 5.04297 0.549656 5.17954 0.546772C5.45237 0.54101 5.8321 0.535738 6.31663 0.530986C7.28533 0.521485 8.66764 0.514113 10.4404 0.508947C13.9856 0.498617 19.0888 0.497125 25.5601 0.505029L45.629 0.529539L46.1406 0.697207C47.6099 1.17875 48.7899 2.43699 49.2829 4.11402L49.4707 4.7528L49.4903 20.8957C49.4915 21.9583 49.4929 22.954 49.4941 23.8873C49.5034 30.8963 49.5081 34.3889 49.4568 36.2498C49.4275 37.31 49.3804 37.8029 49.3163 38.1037C49.2713 38.3148 49.2234 38.4201 49.138 38.6077C49.1074 38.6748 49.0721 38.7525 49.0303 38.8493C48.5473 39.9698 47.9026 40.7052 46.9563 41.246C46.9262 41.2632 46.8978 41.2795 46.8708 41.295C46.6418 41.4264 46.5159 41.4986 46.3418 41.5568C46.1494 41.6212 45.8783 41.6727 45.3534 41.7078C44.3503 41.7748 42.5615 41.775 38.9219 41.7756C38.7158 41.7756 38.5037 41.7757 38.2855 41.7757L31.0115 41.7772L30.4331 41.7773L30.5169 42.3496L30.5579 42.6296C30.5785 42.7708 30.6628 43.5234 30.7454 44.3104C30.8268 45.0867 30.9136 45.8651 30.938 46.0318L30.979 46.3117L31.0416 46.739L31.4734 46.7393L34.2549 46.7412C35.8562 46.7423 36.5759 46.7448 36.9747 46.8174C37.1486 46.849 37.2137 46.8871 37.2552 46.919C37.3163 46.9659 37.3732 47.0339 37.5144 47.2143C38.045 47.8923 37.8315 48.9604 37.1519 49.3459L36.9046 49.4862L25.1864 49.4989C21.9235 49.5024 18.925 49.4972 16.72 49.4859C15.6173 49.4802 14.714 49.473 14.0755 49.4647C13.756 49.4605 13.5044 49.4561 13.328 49.4515C13.2395 49.4491 13.1724 49.4468 13.1261 49.4446C13.1125 49.4439 13.1016 49.4433 13.0934 49.4428C12.6842 49.3357 12.2793 48.8973 12.1846 48.3C12.1607 48.1496 12.1781 47.9338 12.247 47.7038C12.3157 47.4744 12.4214 47.2786 12.5297 47.157C12.6701 46.9994 12.726 46.9412 12.7861 46.9006C12.8301 46.8709 12.9005 46.8351 13.0789 46.8062C13.4786 46.7413 14.193 46.7393 15.7611 46.7393H18.5263ZM2.82436 5.03107L2.78155 5.12777V5.23352V18.0276V30.8216V31.3216H3.28155H25H46.7185H47.2185V30.8216V18.0225C47.2185 16.9703 47.2187 16.0019 47.2189 15.1104C47.2202 9.97072 47.2209 7.38655 47.1707 6.04246C47.1421 5.2752 47.0968 4.83651 46.9904 4.54906C46.9271 4.37802 46.8441 4.26124 46.7527 4.16425C46.7214 4.13112 46.6871 4.09834 46.6632 4.0756C46.6588 4.07136 46.6547 4.06747 46.6511 4.06399C46.6241 4.03806 46.6024 4.01659 46.5804 3.99197C46.5684 3.97854 46.558 3.96466 46.5375 3.93521C46.5359 3.93297 46.5341 3.93042 46.5322 3.9276C46.5135 3.90068 46.4775 3.84874 46.4335 3.79934C46.3098 3.66039 46.1557 3.57046 45.9506 3.51016C45.6053 3.40865 44.9905 3.36014 43.7881 3.32901C41.6642 3.27403 37.4995 3.27461 29.1906 3.27576C27.8969 3.27594 26.5026 3.27614 25 3.27614C23.649 3.27614 22.3859 3.27601 21.2048 3.27589C12.7191 3.27501 8.46645 3.27457 6.29738 3.32601C5.08302 3.3548 4.46375 3.39959 4.11668 3.48911C3.91841 3.54025 3.7612 3.61663 3.63024 3.7439C3.57799 3.79468 3.538 3.84642 3.51669 3.87398C3.51562 3.87536 3.5146 3.87668 3.51363 3.87794C3.48967 3.90888 3.47983 3.92122 3.4676 3.93411C3.29383 4.11739 3.08703 4.4379 2.98076 4.67789L2.82436 5.03107ZM26.2251 38.6034C26.4519 38.4304 26.7276 38.1107 26.8721 37.8591C26.9739 37.6819 27.0568 37.5162 27.101 37.289C27.1404 37.0864 27.1448 36.8529 27.1448 36.5494C27.1448 36.246 27.1404 36.0124 27.101 35.8098C27.0568 35.5826 26.9739 35.417 26.8721 35.2397C26.5147 34.6174 25.9553 34.197 25.2661 34.1311C24.5768 34.0653 23.9512 34.285 23.5012 34.7365C23.0555 35.1839 22.8178 35.8217 22.8178 36.5363C22.8178 37.4878 23.2015 38.2863 23.9814 38.7423C24.3231 38.9422 24.7434 39.0063 25.1222 38.9828C25.5012 38.9592 25.9102 38.8434 26.2251 38.6034Z" stroke="white"/>
</svg>
