<?xml version="1.0" encoding="UTF-8" standalone="no"?>
<svg
   xmlns:dc="http://purl.org/dc/elements/1.1/"
   xmlns:cc="http://creativecommons.org/ns#"
   xmlns:rdf="http://www.w3.org/1999/02/22-rdf-syntax-ns#"
   xmlns:svg="http://www.w3.org/2000/svg"
   xmlns="http://www.w3.org/2000/svg"
   xmlns:sodipodi="http://sodipodi.sourceforge.net/DTD/sodipodi-0.dtd"
   xmlns:inkscape="http://www.inkscape.org/namespaces/inkscape"
   class="ionicon"
   viewBox="0 0 512 512"
   version="1.1"
   id="svg891"
   sodipodi:docname="desktop-outline.svg"
   inkscape:version="1.0.1 (3bc2e813f5, 2020-09-07)">
  <metadata
     id="metadata897">
    <rdf:RDF>
      <cc:Work
         rdf:about="">
        <dc:format>image/svg+xml</dc:format>
        <dc:type
           rdf:resource="http://purl.org/dc/dcmitype/StillImage" />
      </cc:Work>
    </rdf:RDF>
  </metadata>
  <defs
     id="defs895" />
  <sodipodi:namedview
     pagecolor="#ffffff"
     bordercolor="#666666"
     borderopacity="1"
     objecttolerance="10"
     gridtolerance="10"
     guidetolerance="10"
     inkscape:pageopacity="0"
     inkscape:pageshadow="2"
     inkscape:window-width="1920"
     inkscape:window-height="1006"
     id="namedview893"
     showgrid="false"
     inkscape:zoom="1.3964844"
     inkscape:cx="256"
     inkscape:cy="255.28392"
     inkscape:window-x="0"
     inkscape:window-y="45"
     inkscape:window-maximized="1"
     inkscape:current-layer="svg891" />
  <title
     id="title881">Desktop</title>
  <rect
     x="32"
     y="64"
     width="448"
     height="320"
     rx="32"
     ry="32"
     fill="none"
     stroke="currentColor"
     stroke-linejoin="round"
     stroke-width="32"
     id="rect883" />
  <path
     stroke="currentColor"
     stroke-linecap="round"
     stroke-linejoin="round"
     stroke-width="32"
     d="M304 448l-8-64h-80l-8 64h96z"
     id="path885" />
  <path
     fill="none"
     stroke="currentColor"
     stroke-linecap="round"
     stroke-linejoin="round"
     stroke-width="32"
     d="M368 448H144"
     id="path887" />
  <path
     d="M32 304v48a32.09 32.09 0 0032 32h384a32.09 32.09 0 0032-32v-48zm224 64a16 16 0 1116-16 16 16 0 01-16 16z"
     id="path889" />
  <path
     style="fill:#ffffff;stroke-width:0.716084"
     d="m 141.12981,463.25158 c -6.26958,-1.24334 -11.43809,-6.55355 -12.60777,-12.95344 -0.74187,-4.0591 1.23004,-9.77133 4.45948,-12.91829 4.98802,-4.8606 5.02043,-4.86516 34.52667,-4.86516 h 26.48565 l 0.39262,-2.32728 c 0.21595,-1.28 1.03518,-7.64419 1.82053,-14.14265 0.78535,-6.49847 1.60459,-12.86266 1.82053,-14.14266 l 0.39262,-2.32727 -69.67161,-0.0125 C 51.021314,399.54852 53.576183,399.69661 43.323077,394.6108 33.275338,389.62684 26.434183,382.78499 21.436195,372.72168 16.111222,361.99999 16.430096,372.03298 16.639796,221.8089 l 0.188176,-134.804704 1.992356,-5.882277 c 3.656032,-10.79415 11.451888,-20.357625 21.342319,-26.181437 6.051354,-3.563237 12.298399,-5.43275 21.055506,-6.301145 4.60455,-0.456608 76.181417,-0.637636 200.152477,-0.506213 l 192.98461,0.204585 5.62397,1.599878 c 15.73201,4.47536 28.08345,16.076751 33.20046,31.184332 l 1.99236,5.882277 0.18817,134.804704 c 0.20971,150.22408 0.52858,140.19109 -4.79639,150.91278 -4.99799,10.06331 -11.83915,16.90516 -21.88689,21.88912 -10.2531,5.08581 -7.69824,4.93772 -85.42545,4.95159 l -69.67161,0.0124 0.39262,2.32727 c 0.21594,1.28 1.03518,7.64419 1.82053,14.14266 0.78535,6.49846 1.60458,12.86265 1.82053,14.14265 l 0.39262,2.32728 26.64167,0.0158 c 30.07305,0.0178 30.01112,0.008 34.98802,5.5282 6.76418,7.50266 4.34304,19.35863 -4.88059,23.8995 l -3.46575,1.7062 -113.4993,0.10706 c -62.51888,0.059 -114.91917,-0.17452 -116.6604,-0.51982 z M 264.8305,365.72561 c 1.63497,-1.08197 3.86156,-3.31043 4.948,-4.95216 1.75046,-2.64512 1.97535,-3.64905 1.97535,-8.81821 0,-5.16915 -0.22489,-6.17308 -1.97535,-8.8182 -2.80509,-4.23879 -6.91542,-6.75343 -11.68544,-7.149 -10.54285,-0.87429 -18.20495,5.80012 -18.20495,15.85825 0,6.72756 3.04231,11.84323 8.77321,14.7522 4.46744,2.26766 12.04135,1.85879 16.16918,-0.87288 z M 464.02238,197.9264 c 0,-118.509987 0.42078,-108.716294 -4.89263,-113.876609 C 454.06646,79.13239 469.77242,79.485315 256,79.485315 c -211.914895,0 -197.890931,-0.288652 -202.764956,4.173461 -1.243803,1.138686 -2.935551,3.391667 -3.759441,5.006625 l -1.497981,2.936286 V 197.96867 304.33566 H 256 464.02238 Z"
     id="path899" />
</svg>
