<?xml version="1.0" encoding="UTF-8" standalone="no"?>
<svg
   xmlns:dc="http://purl.org/dc/elements/1.1/"
   xmlns:cc="http://creativecommons.org/ns#"
   xmlns:rdf="http://www.w3.org/1999/02/22-rdf-syntax-ns#"
   xmlns:svg="http://www.w3.org/2000/svg"
   xmlns="http://www.w3.org/2000/svg"
   xmlns:sodipodi="http://sodipodi.sourceforge.net/DTD/sodipodi-0.dtd"
   xmlns:inkscape="http://www.inkscape.org/namespaces/inkscape"
   class="ionicon"
   viewBox="0 0 512 512"
   version="1.1"
   id="svg66"
   sodipodi:docname="home.svg"
   inkscape:version="1.0.1 (3bc2e813f5, 2020-09-07)">
  <metadata
     id="metadata72">
    <rdf:RDF>
      <cc:Work
         rdf:about="">
        <dc:format>image/svg+xml</dc:format>
        <dc:type
           rdf:resource="http://purl.org/dc/dcmitype/StillImage" />
      </cc:Work>
    </rdf:RDF>
  </metadata>
  <defs
     id="defs70" />
  <sodipodi:namedview
     pagecolor="#ffffff"
     bordercolor="#666666"
     borderopacity="1"
     objecttolerance="10"
     gridtolerance="10"
     guidetolerance="10"
     inkscape:pageopacity="0"
     inkscape:pageshadow="2"
     inkscape:window-width="1920"
     inkscape:window-height="1006"
     id="namedview68"
     showgrid="false"
     inkscape:zoom="0.98746357"
     inkscape:cx="203.76462"
     inkscape:cy="222.60336"
     inkscape:window-x="0"
     inkscape:window-y="45"
     inkscape:window-maximized="1"
     inkscape:current-layer="svg66" />
  <title
     id="title60">Home</title>
  <path
     d="M261.56 101.28a8 8 0 00-11.06 0L66.4 277.15a8 8 0 00-2.47 5.79L63.9 448a32 32 0 0032 32H192a16 16 0 0016-16V328a8 8 0 018-8h80a8 8 0 018 8v136a16 16 0 0016 16h96.06a32 32 0 0032-32V282.94a8 8 0 00-2.47-5.79z"
     id="path62" />
  <path
     d="M490.91 244.15l-74.8-71.56V64a16 16 0 00-16-16h-48a16 16 0 00-16 16v32l-57.92-55.38C272.77 35.14 264.71 32 256 32c-8.68 0-16.72 3.14-22.14 8.63l-212.7 203.5c-6.22 6-7 15.87-1.34 22.37A16 16 0 0043 267.56L250.5 69.28a8 8 0 0111.06 0l207.52 198.28a16 16 0 0022.59-.44c6.14-6.36 5.63-16.86-.76-22.97z"
     id="path64" />
  <path
     style="fill:#ffffff;stroke-width:1.0127"
     d="M 87.810976,478.3878 C 79.316698,475.75061 71.708118,469.30014 67.411262,461.09317 L 65.025326,456.53604 64.750613,368.2409 64.4759,279.94578 154.40694,194.05727 c 105.5432,-100.798873 98.74205,-94.496426 101.97365,-94.496426 1.97319,0 20.60452,17.261416 84.32953,78.128966 44.98821,42.97093 87.37923,83.57824 94.20227,90.23846 l 12.40552,12.10949 v 86.29312 c 0,100.12608 0.62072,93.34672 -9.46285,103.35089 -10.01651,9.93763 -7.87778,9.63992 -69.25264,9.63992 -51.2441,0 -52.21932,-0.0374 -55.96893,-2.14478 -2.09886,-1.17962 -4.78126,-3.86202 -5.96088,-5.96088 -2.12745,-3.78527 -2.14478,-4.38534 -2.14478,-74.26609 0,-49.47449 -0.33477,-71.18471 -1.12436,-72.91771 -0.61841,-1.35723 -2.23485,-2.97368 -3.59209,-3.59208 -1.68198,-0.76636 -15.85891,-1.12436 -44.52484,-1.12436 h -42.05711 l -2.96018,2.96019 -2.96019,2.96018 v 71.06672 c 0,78.56127 0.24837,75.47285 -6.45421,80.25384 l -3.1664,2.25862 -53.67287,0.17924 c -29.52007,0.0986 -54.812147,-0.17447 -56.204604,-0.60678 z"
     id="path915" />
  <path
     style="fill:#ffffff;stroke-width:1.0127"
     d="m 25.301783,269.59933 c -2.353558,-1.165 -5.201764,-3.61093 -6.329347,-5.43539 -2.554257,-4.13287 -2.679984,-11.09705 -0.277933,-15.39504 0.974719,-1.74405 50.859681,-50.11787 110.855467,-107.49736 101.4854,-97.05981 109.49125,-104.479634 114.94095,-106.527236 4.51874,-1.697815 7.49965,-2.119843 13.04097,-1.846297 11.7722,0.581132 14.70555,2.701189 48.09849,34.762926 16.24305,15.595512 29.93126,28.507381 30.41826,28.693041 0.487,0.185662 0.88715,-8.017173 0.88924,-18.22852 0.004,-20.740107 0.64105,-23.101781 7.329,-27.179469 3.08623,-1.881701 5.14817,-2.012596 31.75941,-2.016135 27.84891,-0.0037 28.53064,0.04505 31.80679,2.27478 1.84134,1.25321 4.30123,3.564787 5.46641,5.136838 2.0823,2.809424 2.12338,3.833795 2.40378,59.937872 l 0.28528,57.0796 38.39413,36.6823 c 21.11677,20.17528 38.9289,37.97337 39.58252,39.55135 5.29817,12.79093 -6.99422,25.89227 -19.18227,20.44462 -2.88488,-1.28946 -36.27548,-32.5554 -108.51812,-101.61307 C 308.87175,113.56136 260.56483,68.10268 258.91611,67.404855 c -2.4018,-1.016569 -3.57409,-1.016569 -5.89748,0 -1.59489,0.697825 -50.0144,46.330135 -107.59891,101.405125 -57.865355,55.34361 -106.156778,100.75651 -107.957822,101.52273 -4.475896,1.90421 -7.158414,1.74242 -12.160115,-0.73338 z"
     id="path917" />
</svg>
